<svg width="30" height="23" viewBox="0 0 30 23" fill="none" xmlns="http://www.w3.org/2000/svg">
<path d="M0 3.75C0 2.75544 0.395088 1.80161 1.09835 1.09835C1.80161 0.395088 2.75544 0 3.75 0H26.25C27.2446 0 28.1984 0.395088 28.9016 1.09835C29.6049 1.80161 30 2.75544 30 3.75V18.75C30 19.7446 29.6049 20.6984 28.9016 21.4016C28.1984 22.1049 27.2446 22.5 26.25 22.5H3.75C2.75544 22.5 1.80161 22.1049 1.09835 21.4016C0.395088 20.6984 0 19.7446 0 18.75V3.75ZM3.75 1.875C3.25272 1.875 2.77581 2.07254 2.42417 2.42417C2.07254 2.77581 1.875 3.25272 1.875 3.75V5.625H28.125V3.75C28.125 3.25272 27.9275 2.77581 27.5758 2.42417C27.2242 2.07254 26.7473 1.875 26.25 1.875H3.75ZM28.125 9.375H1.875V18.75C1.875 19.2473 2.07254 19.7242 2.42417 20.0758C2.77581 20.4275 3.25272 20.625 3.75 20.625H26.25C26.7473 20.625 27.2242 20.4275 27.5758 20.0758C27.9275 19.7242 28.125 19.2473 28.125 18.75V9.375Z" fill="#00031A"/>
<path d="M3.75004 15C3.75004 14.5027 3.94758 14.0258 4.29921 13.6742C4.65084 13.3226 5.12776 13.125 5.62504 13.125H7.50004C7.99732 13.125 8.47423 13.3226 8.82586 13.6742C9.17749 14.0258 9.37504 14.5027 9.37504 15V16.875C9.37504 17.3723 9.17749 17.8492 8.82586 18.2009C8.47423 18.5525 7.99732 18.75 7.50004 18.75H5.62504C5.12776 18.75 4.65084 18.5525 4.29921 18.2009C3.94758 17.8492 3.75004 17.3723 3.75004 16.875V15Z" fill="#00031A"/>
</svg>
