<svg width="24" height="28" viewBox="0 0 24 28" fill="none" xmlns="http://www.w3.org/2000/svg">
<path d="M21.2824 6.49734C21.4941 4.62321 21.1182 3.29154 20.0435 2.07712C18.7553 0.622961 16.433 0 13.4578 0H4.825C4.53113 0.000126195 4.24692 0.104143 4.02343 0.293371C3.79993 0.482599 3.65179 0.74464 3.60561 1.03244L0.00920843 23.6393C-0.00763948 23.7443 -0.00131549 23.8516 0.0277446 23.954C0.0568046 24.0563 0.107908 24.1512 0.17753 24.232C0.247152 24.3129 0.333634 24.3778 0.431009 24.4223C0.528384 24.4668 0.634334 24.4898 0.741548 24.4897H5.60499L5.24852 26.7296C5.22354 26.8864 5.23312 27.0467 5.27661 27.1995C5.32009 27.3523 5.39645 27.494 5.50043 27.6147C5.60441 27.7355 5.73354 27.8324 5.87893 27.8989C6.02431 27.9654 6.18251 27.9999 6.34262 28H10.8355C11.5925 28 12.2349 27.4575 12.3566 26.7208L12.4007 26.4933L13.2478 21.1684L13.3007 20.8814L13.3025 20.8692C13.3253 20.7241 13.3998 20.5918 13.5124 20.4965C13.6251 20.4011 13.7685 20.349 13.9166 20.3495H14.5872C16.8213 20.3495 18.8665 19.9015 20.49 18.7571C21.1588 18.2846 21.7465 17.7019 22.2423 16.9984C23.0658 15.8616 23.5987 14.5435 23.7952 13.1574C24.2223 10.9771 24.0247 9.03469 22.7894 7.63827C22.4086 7.21692 21.9543 6.86717 21.4482 6.60584L21.2824 6.49909V6.49734ZM8.0173 15.434C8.19216 15.3434 8.38647 15.296 8.58376 15.2958H11.1178C16.0942 15.2958 19.9888 13.2939 21.1271 7.49828L21.1324 7.47028C21.5153 7.68727 21.8382 7.94275 22.0994 8.23674C23.0629 9.32692 23.2976 10.9228 22.8935 12.9789C22.4135 15.4235 21.3653 17.0159 19.9588 18.0081C18.5436 19.0056 16.7083 19.4343 14.5889 19.4343H13.9184C13.552 19.4338 13.1974 19.5629 12.9183 19.7983C12.6392 20.0337 12.4538 20.36 12.3955 20.7187L12.3425 21.0057L11.4955 26.3306L11.4531 26.5581L11.4514 26.5651C11.4278 26.7097 11.3531 26.8414 11.2406 26.9363C11.128 27.0312 10.985 27.0833 10.8372 27.0831H6.34439C6.31723 27.0832 6.29038 27.0774 6.2657 27.0661C6.24101 27.0549 6.21909 27.0385 6.20146 27.018C6.18383 26.9975 6.17091 26.9735 6.16359 26.9475C6.15627 26.9216 6.15474 26.8944 6.1591 26.8678L6.52615 24.558L8.0173 15.434Z" fill="#00031A"/>
</svg>
